<?xml version="1.0" encoding="iso-8859-1"?>
<!-- Generator: Adobe Illustrator 16.0.0, SVG Export Plug-In . SVG Version: 6.00 Build 0)  -->
<!DOCTYPE svg PUBLIC "-//W3C//DTD SVG 1.1//EN" "http://www.w3.org/Graphics/SVG/1.1/DTD/svg11.dtd">
<svg version="1.1" id="Capa_1" xmlns="http://www.w3.org/2000/svg" xmlns:xlink="http://www.w3.org/1999/xlink" x="0px" y="0px"
	 width="20px" height="20px" viewBox="0 0 372.562 372.562" style="enable-background:new 0 0 372.562 372.562;"
	 xml:space="preserve">
<g>
	<g>
		<path d="M244.316,116.5V39.998c11.029-0.019,19.965-8.964,19.965-19.998c0-11.046-8.953-20-20-20h-116c-11.046,0-20,8.954-20,20
			c0,11.034,8.936,19.979,19.965,19.998V116.5c-46.324,22.144-76.561,69.292-76.561,121.465
			c0,74.217,60.379,134.597,134.596,134.597c74.216,0,134.595-60.38,134.595-134.597C320.876,185.792,290.64,138.644,244.316,116.5z
			 M186.281,332.561c-52.16,0-94.596-42.437-94.596-94.596c0-40.09,25.397-75.959,63.197-89.257
			c8.007-2.816,13.363-10.379,13.363-18.867V40h36.071v89.842c0,8.487,5.355,16.05,13.362,18.867
			c37.8,13.297,63.196,49.167,63.196,89.255C280.876,290.125,238.441,332.561,186.281,332.561z"/>
		<path d="M186.281,302.188c38.664,0,70-31.335,70-70h-140C116.281,270.854,147.617,302.188,186.281,302.188z"/>
	</g>
</g>
<g>
</g>
<g>
</g>
<g>
</g>
<g>
</g>
<g>
</g>
<g>
</g>
<g>
</g>
<g>
</g>
<g>
</g>
<g>
</g>
<g>
</g>
<g>
</g>
<g>
</g>
<g>
</g>
<g>
</g>
</svg>
