<svg id="Capa_1" enable-background="new 0 0 512 512" height="15px" viewBox="0 0 512 512" width="15px" xmlns="http://www.w3.org/2000/svg"><path d="m447.9 181.54v285.46c0 24.81-20.19 45-45 45h-293.8c-24.81 0-45-20.19-45-45v-285.46c0-8.28 6.72-15 15-15h353.8c8.28 0 15 6.72 15 15z" fill="#f4ede7"/><path d="m447.9 181.54v285.46c0 24.81-20.19 45-45 45h-146.9v-345.46h176.9c8.28 0 15 6.72 15 15z" fill="#e7dedb"/><path d="m360.909 153.492c-8.284 0-201.533 0-209.817 0s-15 6.716-15 15v213.002c0 8.284 6.716 15 15 15h209.817c8.284 0 15-6.716 15-15v-213.002c0-8.284-6.716-15-15-15z" fill="#64e1dc"/><path d="m360.909 396.494c8.284 0 15-6.716 15-15v-213.002c0-8.284-6.716-15-15-15-4.142 0-54.525 0-104.909 0v243.002z" fill="#00c8c8"/><path d="m303.192 259.993h-32.192v-31.122c0-8.284-6.716-15-15-15s-15 6.716-15 15v31.122h-32.192c-8.284 0-15 6.716-15 15s6.716 15 15 15h32.192v31.122c0 8.284 6.716 15 15 15s15-6.716 15-15v-31.122h32.192c8.284 0 15-6.716 15-15s-6.716-15-15-15z" fill="#f4ede7"/><path d="m303.192 259.993h-32.192v-31.122c0-8.284-6.716-15-15-15v122.244c8.284 0 15-6.716 15-15v-31.122h32.192c8.284 0 15-6.716 15-15s-6.716-15-15-15z" fill="#e7dedb"/><path d="m432.897 0h-353.794c-8.284 0-15 6.716-15 15v51.296c0 8.284 6.716 15 15 15s345.511 0 353.795 0 15-6.716 15-15v-51.296c-.001-8.284-6.716-15-15.001-15z" fill="#1c3771"/><path d="m432.897 0h-176.897v81.296h176.897c8.284 0 15-6.716 15-15v-51.296c0-8.284-6.715-15-15-15z" fill="#0b1a35"/><path d="m451.85 61.27h-61.1l-9.13 11.106h-13.581l-7.289-11.106h-49.57l-10.332 11.106h-11.437l-8.231-11.106h-49.56l-10.829 9.676h-10.722l-8.449-9.676h-49.56l-10.612 13.25h-10.007l-9.381-13.25h-61.91c-8.28 0-15 6.71-15 15v92.22c0 8.29 6.72 15 15 15h61.91l6.522-11.043h13.581l9.897 11.043h49.56l6.304-11.757h15.011l8.685 11.757h49.56l7.516-9.613h10.722l11.762 9.613h49.57l7.289-7.469h14.296l8.416 7.469h61.1c8.28 0 15-6.71 15-15v-92.22c-.001-8.29-6.721-15-15.001-15z" fill="#fdbf00"/><g fill="#ff9100"><path d="m122.06 61.27h30v122.22h-30z"/><path d="m201.62 61.27h30v122.22h-30z"/><path d="m451.85 61.27h-61.1l-9.13 11.106h-13.581l-7.289-11.106h-49.57l-10.332 11.106h-11.437l-8.231-11.106h-25.18v122.22h25.18l7.516-9.613h10.722l11.762 9.613h49.57l7.289-7.469h14.296l8.416 7.469h61.1c8.28 0 15-6.71 15-15v-92.22c-.001-8.29-6.721-15-15.001-15z"/></g><path d="m281.18 61.27h30v122.22h-30z" fill="#e85260"/><path d="m360.75 61.27h30v122.22h-30z" fill="#e85260"/></svg>